<svg color-interpolation="auto" stroke="#000" stroke-linecap="square" stroke-miterlimit="10" xmlns="http://www.w3.org/2000/svg"><path d="m108 206.7188q36.9844 0 63.2812 26.2968 26.2969 26.2969 26.2969 63.2813 0 37.125-26.2265 63.3515-26.2266 26.2266-63.3516 26.2266-36.9844 0-63.2812-26.2969-26.2969-26.2969-26.2969-63.2812 0-36.9844 26.2969-63.2813 26.2968-26.2968 63.2812-26.2968zm0 170.5781q33.3281 0 57.0938-23.836 23.7656-23.8359 23.7656-57.164 0-33.3281-23.7656-57.0938-23.7657-23.7656-57.0938-23.7656-33.3281 0-57.0938 23.7656-23.7656 23.7657-23.7656 57.0938 0 33.3281 23.7656 57.164 23.7657 23.836 57.0938 23.836zm31.6406-114.0469q4.7813 0 8.1563 3.375 3.375 3.375 3.375 8.0156 0 4.7813-3.375 8.1563-3.375 3.375-8.1563 3.375-4.6406 0-8.0859-3.375-3.4453-3.375-3.4453-8.1563 0-4.6406 3.4453-8.0156 3.4453-3.375 8.0859-3.375zm-63.2812 0q4.6406 0 8.0859 3.375 3.4453 3.375 3.4453 8.0156 0 4.7813-3.375 8.1563-3.375 3.375-8.1562 3.375-4.7813 0-8.1563-3.375-3.375-3.375-3.375-8.1563 0-4.6406 3.375-8.0156 3.375-3.375 8.1563-3.375zm75.375 57.5156q-14.9063 28.5469-43.7344 28.5469-28.8281 0-43.7344-28.5469l6.3282-3.6562q5.9062 9.5625 16.1015 14.8359 10.1953 5.2735 21.3047 5.2735 11.1094 0 21.3047-5.2735 10.1953-5.2734 16.1015-14.8359z" stroke="none"/></svg>